<svg width="242" height="99" viewBox="0 0 242 99" fill="none" xmlns="http://www.w3.org/2000/svg"><g clip-path="url(#a)"><path d="M170.074 78.364a4.25 4.25 0 1 0 0-8.5 4.25 4.25 0 0 0 0 8.5Z" fill="#F59B00"/><path d="M140.543 78.364a4.25 4.25 0 1 0 0-8.5 4.25 4.25 0 0 0 0 8.5Z" fill="#EA4E52"/><path d="M170.074 34.99a4.25 4.25 0 1 0 0-8.5 4.25 4.25 0 0 0 0 8.5Z" fill="#66C0B5"/><path d="M140.543 34.99a4.25 4.25 0 1 0 0-8.5 4.25 4.25 0 0 0 0 8.5Z" fill="#AFCA00"/><path d="M77.01 40.219a40.014 40.014 0 0 1 9.373-1.199c4.61 0 8.216 1.163 10.816 3.49 2.6 2.326 3.898 5.546 3.89 9.662a13.311 13.311 0 0 1-1.904 7.165 12.97 12.97 0 0 1-5.313 4.78 17.424 17.424 0 0 1-7.93 1.717 11.57 11.57 0 0 1-1.839-.162v11.004h-7.092V40.22Zm8.608 19.118c2.544 0 4.552-.644 6.022-1.934 1.47-1.289 2.206-3.041 2.206-5.257 0-2.032-.644-3.649-1.934-4.85-1.289-1.2-3.041-1.8-5.257-1.797-.868.001-1.733.111-2.574.327v13.35a7.201 7.201 0 0 0 1.533.169l.004-.008ZM118.362 66.102a14.458 14.458 0 0 1-7.191-1.772 13.096 13.096 0 0 1-4.986-4.875 14.51 14.51 0 0 1 0-14.085 13.186 13.186 0 0 1 4.986-4.85 15.484 15.484 0 0 1 14.386 0 13.186 13.186 0 0 1 4.986 4.85 14.489 14.489 0 0 1 0 14.085 13.098 13.098 0 0 1-5 4.875 14.477 14.477 0 0 1-7.181 1.772Zm4.85-18.582a6.987 6.987 0 0 0-9.699 0 7.118 7.118 0 0 0 0 9.81 6.813 6.813 0 0 0 11.662-4.905 6.655 6.655 0 0 0-1.963-4.905ZM136.999 39.62h7.085v25.61h-7.085V39.62ZM151.22 45.723h-3.54v-6.104h3.54v-5.463l6.648-3.379h.437v8.824h4.412v6.103h-4.412v9.21c0 1.383.254 2.373.761 2.971.507.598 1.325.897 2.452.897.59.013 1.178-.06 1.747-.217v6.592a8.98 8.98 0 0 1-1.338.302c-.513.085-1.032.13-1.552.136-3.162 0-5.478-.764-6.949-2.29-1.471-1.528-2.206-3.907-2.206-7.137V45.723ZM166.53 39.62h7.085v25.61h-7.085V39.62ZM194.211 66.102c-3.27 0-6.103-.572-8.5-1.717a12.723 12.723 0 0 1-5.515-4.875c-1.29-2.105-1.934-4.613-1.934-7.522a13.79 13.79 0 0 1 1.662-6.839 12.302 12.302 0 0 1 4.577-4.684 12.908 12.908 0 0 1 6.673-1.717 11.99 11.99 0 0 1 6.048 1.526 11.11 11.11 0 0 1 4.199 4.195 12.013 12.013 0 0 1 1.526 6.048c0 .474 0 1.007-.03 1.61.002.43-.043.86-.136 1.28l-16.89 2.573c1.198 2.581 4.032 3.872 8.5 3.872a20.368 20.368 0 0 0 3.379-.302 15.368 15.368 0 0 0 3.052-.79v6.269c-.915.382-1.877.638-2.861.76a22.821 22.821 0 0 1-3.75.313Zm-3.103-21.089a5.517 5.517 0 0 0-3.927 1.445 6.346 6.346 0 0 0-1.838 3.897l10.464-1.636a4.465 4.465 0 0 0-1.552-2.695 4.778 4.778 0 0 0-3.147-1.011ZM207.123 39.62h6.868v2.992c1.344-2.206 3.905-3.309 7.685-3.309h.272v7.03h-.445a12.904 12.904 0 0 0-4.714.765c-1.289.507-2.147 1.215-2.573 2.125v16.019h-7.093V39.619ZM225.433 58.91a27.2 27.2 0 0 0 2.805.515c.913.126 1.833.191 2.754.195 1.272 0 2.18-.164 2.724-.492a1.47 1.47 0 0 0 .817-1.31 1.843 1.843 0 0 0-.53-1.235 8.92 8.92 0 0 0-2.07-1.47l-2.89-1.691a9.164 9.164 0 0 1-3.213-2.997 6.984 6.984 0 0 1-1.143-3.816 6.48 6.48 0 0 1 2.761-5.467c1.853-1.378 4.414-2.068 7.684-2.07.982 0 1.963.047 2.941.136.844.07 1.682.206 2.504.408v5.993a26.188 26.188 0 0 0-2.614-.368 28.341 28.341 0 0 0-2.291-.11c-1.235 0-2.103.147-2.614.437a1.262 1.262 0 0 0-.761 1.103c.017.325.147.633.368.871.402.421.872.772 1.39 1.037l2.89 1.688c3.375 1.96 5.064 4.522 5.066 7.684 0 2.508-.918 4.441-2.754 5.802-1.836 1.36-4.428 2.034-7.776 2.022a31.707 31.707 0 0 1-3.243-.162 60.507 60.507 0 0 1-2.805-.367V58.91ZM13.93 71.095a13.93 13.93 0 1 1 0 27.86 13.93 13.93 0 0 1 0-27.86ZM28.715 0A28.718 28.718 0 0 0 0 28.718V71a19.71 19.71 0 0 1 13.92-5.754h22.556a28.738 28.738 0 0 0 28.77-28.755V0H28.715Zm18.284 34.325A12.677 12.677 0 0 1 34.32 47.002H18.23V30.895a12.666 12.666 0 0 1 12.666-12.666h16.104v16.096ZM77.239 26.104h1.371l3.243 6.732 3.28-6.732h1.257l-4.519 8.982h-.08l-4.552-8.982ZM87.728 23.394a.926.926 0 0 1 0-1.305.909.909 0 0 1 .666-.257.923.923 0 0 1 .669.257.937.937 0 0 1 0 1.305.906.906 0 0 1-.67.269.89.89 0 0 1-.665-.269Zm.074 2.71h1.184v8.717h-1.184v-8.717ZM91.618 21.09h1.18V34.82h-1.18V21.09ZM95.43 21.09h1.185V34.82H95.43V21.09ZM103.784 35.05a5.881 5.881 0 0 1-2.717-.592 4.297 4.297 0 0 1-1.783-1.659 4.84 4.84 0 0 1-.629-2.5 4.781 4.781 0 0 1 .544-2.316 4.044 4.044 0 0 1 1.497-1.574 4.171 4.171 0 0 1 2.206-.573 3.807 3.807 0 0 1 1.908.478 3.537 3.537 0 0 1 1.327 1.316c.33.581.497 1.24.486 1.908v.294a1.09 1.09 0 0 1-.019.22l-6.713.953a3.115 3.115 0 0 0 1.228 2.206 4.41 4.41 0 0 0 2.739.798c.354-.002.708-.03 1.059-.085.327-.041.65-.115.963-.22v1.033a3.594 3.594 0 0 1-.908.228c-.393.058-.79.086-1.188.084Zm-3.059-7.306a3.396 3.396 0 0 0-.908 2.309l5.629-.802a2.442 2.442 0 0 0-.776-1.717 2.55 2.55 0 0 0-1.783-.628 2.902 2.902 0 0 0-2.162.838ZM119.366 34.59c-.458.14-.926.242-1.401.305a10.93 10.93 0 0 1-1.496.095c-1.488 0-2.661-.397-3.519-1.19a4.205 4.205 0 0 1-1.287-3.25 4.348 4.348 0 0 1 .666-2.424 4.533 4.533 0 0 1 1.86-1.614 6.271 6.271 0 0 1 2.776-.58c.412-.002.823.043 1.224.135V21.09h1.18l-.003 13.5Zm-2.364-7.57a4.507 4.507 0 0 0-2.993.952 3.52 3.52 0 0 0-.173 5.037 3.71 3.71 0 0 0 2.614.897 8.126 8.126 0 0 0 1.736-.191V27.17a4.414 4.414 0 0 0-1.184-.15ZM126.557 35.05a5.884 5.884 0 0 1-2.717-.593 4.278 4.278 0 0 1-1.783-1.658 5.221 5.221 0 0 1-.631-2.397 5.214 5.214 0 0 1 .543-2.42 4.043 4.043 0 0 1 1.496-1.573 4.178 4.178 0 0 1 2.206-.573 3.818 3.818 0 0 1 1.908.478c.553.31 1.01.765 1.324 1.316.329.581.497 1.24.485 1.908v.294a.907.907 0 0 1-.018.22l-6.714.953a3.12 3.12 0 0 0 1.232 2.206 4.41 4.41 0 0 0 2.735.798c.355-.002.709-.03 1.059-.085.328-.04.651-.114.964-.22v1.033a3.601 3.601 0 0 1-.905.228 7.914 7.914 0 0 1-1.184.084Zm-3.062-7.306a3.409 3.409 0 0 0-.905 2.309l5.625-.802a2.456 2.456 0 0 0-.772-1.717 2.573 2.573 0 0 0-1.783-.628 2.92 2.92 0 0 0-2.165.838Z" fill="#2B4324"/></g><defs><clipPath id="a"><path fill="#fff" d="M0 0h242v98.96H0z"/></clipPath></defs></svg>