<svg xmlns="http://www.w3.org/2000/svg" style="display: none;">
  
  <!-- Facebook Icon -->
  <symbol id="facebook" viewBox="0 0 24 24">
    <path d="M24 12.073c0-6.627-5.373-12-12-12s-12 5.373-12 12c0 5.99 4.388 10.954 10.125 11.854v-8.385H7.078v-3.47h3.047V9.43c0-3.007 1.792-4.669 4.533-4.669 1.312 0 2.686.235 2.686.235v2.953H15.83c-1.491 0-1.956.925-1.956 1.874v2.25h3.328l-.532 3.47h-2.796v8.385C19.612 23.027 24 18.062 24 12.073z"/>
  </symbol>

  <!-- Instagram Icon -->
  <symbol id="instagram" viewBox="0 0 24 24">
    <path d="M12 2.163c3.204 0 3.584.012 4.85.07 3.252.148 4.771 1.691 4.919 4.919.058 1.265.069 1.645.069 4.849 0 3.205-.012 3.584-.069 4.849-.149 3.225-1.664 4.771-4.919 4.919-1.266.058-1.644.07-4.85.07-3.204 0-3.584-.012-4.849-.07-3.26-.149-4.771-1.699-4.919-4.92-.058-1.265-.07-1.644-.07-4.849 0-3.204.013-3.583.07-4.849.149-3.227 1.664-4.771 4.919-4.919 1.266-.057 1.645-.069 4.849-.069zm0-2.163c-3.259 0-3.667.014-4.947.072-4.358.2-6.78 2.618-6.98 6.98-.059 1.281-.073 1.689-.073 4.948 0 3.259.014 3.668.072 4.948.2 4.358 2.618 6.78 6.98 6.98 1.281.058 1.689.072 4.948.072 3.259 0 3.668-.014 4.948-.072 4.354-.2 6.782-2.618 6.979-6.98.059-1.28.073-1.689.073-4.948 0-3.259-.014-3.667-.072-4.947-.196-4.354-2.617-6.78-6.979-6.98-1.281-.059-1.69-.073-4.949-.073zm0 5.838c-3.403 0-6.162 2.759-6.162 6.162s2.759 6.163 6.162 6.163 6.162-2.759 6.162-6.163c0-3.403-2.759-6.162-6.162-6.162zm0 10.162c-2.209 0-4-1.79-4-4 0-2.209 1.791-4 4-4s4 1.791 4 4c0 2.21-1.791 4-4 4zm6.406-11.845c-.796 0-1.441.645-1.441 1.44s.645 1.44 1.441 1.44c.795 0 1.439-.645 1.439-1.44s-.644-1.44-1.439-1.44z"/>
  </symbol>

  <!-- Mail Icon -->
  <symbol id="mail" viewBox="0 0 24 24" fill="none" stroke="currentColor" stroke-width="2" stroke-linecap="round" stroke-linejoin="round">
    <path d="M4 4h16c1.1 0 2 .9 2 2v12c0 1.1-.9 2-2 2H4c-1.1 0-2-.9-2-2V6c0-1.1.9-2 2-2z"/>
    <polyline points="22,6 12,13 2,6"/>
  </symbol>

  <!-- Phone Icon -->
  <symbol id="phone" viewBox="0 0 24 24" fill="none" stroke="currentColor" stroke-width="2" stroke-linecap="round" stroke-linejoin="round">
    <path d="M22 16.92v3a2 2 0 0 1-2.18 2 19.79 19.79 0 0 1-8.63-3.07 19.5 19.5 0 0 1-6-6 19.79 19.79 0 0 1-3.07-8.67A2 2 0 0 1 4.11 2h3a2 2 0 0 1 2 1.72 12.84 12.84 0 0 0 .7 2.81 2 2 0 0 1-.45 2.11L8.09 9.91a16 16 0 0 0 6 6l1.27-1.27a2 2 0 0 1 2.11-.45 12.84 12.84 0 0 0 2.81.7A2 2 0 0 1 22 16.92z"/>
  </symbol>

  <!-- Map Pin Icon -->
  <symbol id="map-pin" viewBox="0 0 24 24" fill="none" stroke="currentColor" stroke-width="2" stroke-linecap="round" stroke-linejoin="round">
    <path d="M21 10c0 7-9 13-9 13s-9-6-9-13a9 9 0 0 1 18 0z"/>
    <circle cx="12" cy="10" r="3"/>
  </symbol>

  <!-- Calendar Icon -->
  <symbol id="calendar" viewBox="0 0 24 24" fill="none" stroke="currentColor" stroke-width="2" stroke-linecap="round" stroke-linejoin="round">
    <rect x="3" y="4" width="18" height="18" rx="2" ry="2"/>
    <line x1="16" y1="2" x2="16" y2="6"/>
    <line x1="8" y1="2" x2="8" y2="6"/>
    <line x1="3" y1="10" x2="21" y2="10"/>
  </symbol>

  <!-- Clock Icon -->
  <symbol id="clock" viewBox="0 0 24 24" fill="none" stroke="currentColor" stroke-width="2" stroke-linecap="round" stroke-linejoin="round">
    <circle cx="12" cy="12" r="10"/>
    <polyline points="12 6 12 12 16 14"/>
  </symbol>

  <!-- User Icon -->
  <symbol id="user" viewBox="0 0 24 24" fill="none" stroke="currentColor" stroke-width="2" stroke-linecap="round" stroke-linejoin="round">
    <path d="M20 21v-2a4 4 0 0 0-4-4H8a4 4 0 0 0-4 4v2"/>
    <circle cx="12" cy="7" r="4"/>
  </symbol>

  <!-- Users Icon -->
  <symbol id="users" viewBox="0 0 24 24" fill="none" stroke="currentColor" stroke-width="2" stroke-linecap="round" stroke-linejoin="round">
    <path d="M17 21v-2a4 4 0 0 0-4-4H5a4 4 0 0 0-4 4v2"/>
    <circle cx="9" cy="7" r="4"/>
    <path d="M23 21v-2a4 4 0 0 0-3-3.87"/>
    <path d="M16 3.13a4 4 0 0 1 0 7.75"/>
  </symbol>

  <!-- Music Icon -->
  <symbol id="music" viewBox="0 0 24 24" fill="none" stroke="currentColor" stroke-width="2.5" stroke-linecap="round" stroke-linejoin="round">
    <path d="M9 18V5l12-2v13"/>
    <circle cx="6" cy="18" r="3"/>
    <circle cx="18" cy="16" r="3"/>
  </symbol>

  <!-- Heart Icon -->
  <symbol id="heart" viewBox="0 0 24 24" fill="none" stroke="currentColor" stroke-width="2" stroke-linecap="round" stroke-linejoin="round">
    <path d="M20.84 4.61a5.5 5.5 0 0 0-7.78 0L12 5.67l-1.06-1.06a5.5 5.5 0 0 0-7.78 7.78l1.06 1.06L12 21.23l7.78-7.78 1.06-1.06a5.5 5.5 0 0 0 0-7.78z"/>
  </symbol>

  <!-- Star Icon -->
  <symbol id="star" viewBox="0 0 24 24" fill="none" stroke="currentColor" stroke-width="2" stroke-linecap="round" stroke-linejoin="round">
    <polygon points="12 2 15.09 8.26 22 9.27 17 14.14 18.18 21.02 12 17.77 5.82 21.02 7 14.14 2 9.27 8.91 8.26 12 2"/>
  </symbol>

  <!-- Info Icon -->
  <symbol id="info" viewBox="0 0 24 24" fill="none" stroke="currentColor" stroke-width="2" stroke-linecap="round" stroke-linejoin="round">
    <circle cx="12" cy="12" r="10"/>
    <line x1="12" y1="16" x2="12" y2="12"/>
    <line x1="12" y1="8" x2="12.01" y2="8"/>
  </symbol>

  <!-- Check Icon -->
  <symbol id="check" viewBox="0 0 24 24" fill="none" stroke="currentColor" stroke-width="2" stroke-linecap="round" stroke-linejoin="round">
    <polyline points="20 6 9 17 4 12"/>
  </symbol>

  <!-- Arrow Right Icon -->
  <symbol id="arrow-right" viewBox="0 0 24 24" fill="none" stroke="currentColor" stroke-width="2" stroke-linecap="round" stroke-linejoin="round">
    <line x1="5" y1="12" x2="19" y2="12"/>
    <polyline points="12 5 19 12 12 19"/>
  </symbol>

  <!-- Arrow Left Icon -->
  <symbol id="arrow-left" viewBox="0 0 24 24" fill="none" stroke="currentColor" stroke-width="2" stroke-linecap="round" stroke-linejoin="round">
    <line x1="19" y1="12" x2="5" y2="12"/>
    <polyline points="12 19 5 12 12 5"/>
  </symbol>

  <!-- External Link Icon -->
  <symbol id="external-link" viewBox="0 0 24 24" fill="none" stroke="currentColor" stroke-width="2" stroke-linecap="round" stroke-linejoin="round">
    <path d="M18 13v6a2 2 0 0 1-2 2H5a2 2 0 0 1-2-2V8a2 2 0 0 1 2-2h6"/>
    <polyline points="15 3 21 3 21 9"/>
    <line x1="10" y1="14" x2="21" y2="3"/>
  </symbol>

  <!-- Download Icon -->
  <symbol id="download" viewBox="0 0 24 24" fill="none" stroke="currentColor" stroke-width="2" stroke-linecap="round" stroke-linejoin="round">
    <path d="M21 15v4a2 2 0 0 1-2 2H5a2 2 0 0 1-2-2v-4"/>
    <polyline points="7 10 12 15 17 10"/>
    <line x1="12" y1="15" x2="12" y2="3"/>
  </symbol>

</svg>
